<svg xmlns="http://www.w3.org/2000/svg" width="21.5" height="21.5">
    <path fill-rule="evenodd" stroke="#BCBFC7" fill="#FFF" d="M3.499.499h14a3 3 0 0 1 3 3v14a3 3 0 0 1-3 3h-14a3 3 0 0 1-3-3v-14a3 3 0 0 1 3-3z"/>
    <path fill-rule="evenodd" opacity=".902" fill="#505C84" d="M5.897 8.835c.387 0 .738.275.991.463l2.252 2.378 4.961-5.718c.254-.287.604-.462 1.819-.462-.054 0 .574.709.574 2.284 0-.265-.157.129.346.415L10.6 15.32c-.847-.002-1.198.175-1.46.175-.514 0-.863-.177-.91-.175l-3.324-3.784a1.685 1.685 0 0 1-.412-1.119c0-.874.63-1.582 1.403-1.582z"/>
</svg>
