<svg xmlns="http://www.w3.org/2000/svg" width="16" height="16">
    <path fill-rule="evenodd" opacity=".702" fill="#505C84" d="M15.198 15.997H.797c-.479 0-.697-.32-.697-.799V2.793c0-.467.218-.653.697-.653l1.201-.142L1.99.785C1.99.313 2.396.2 2.998.2s1 .113 1 .585V2.14h8V.798c0-.48.52-.598.999-.598.481 0 1.603.113 1.603.585l-.602 1.213 1.2.142c.4 0 .8.186.8.653v12.405c0 .479-.4.799-.8.799zM13.992 4.986H2.4v9.006h11.592V4.986zM5.6 8.654H4.2V6.986h1.4v1.668zm0 3.336H4.2v-1.668h1.4v1.668zm3.197-3.336H7.199V6.986h1.598v1.668zm0 3.336H7.199v-1.668h1.598v1.668zm3.196-3.336h-1.598V6.986h1.598v1.668zm0 3.336h-1.598v-1.668h1.598v1.668z"/>
</svg>
